#!OML:ASF E:/inclinewalkrobotboard/Project1/Captureday1/Session1/subject1.ASF
:FULLY-SPECIFIED
:DEGREES
154
root 0 0 0 -2.280422889575241 -3.8761533359187696 0.46662955141575385
lowerback 7.401231395030489 1.5680557302434135 -2.4596221745640667
upperback 1.7665445926647227 1.952162451674134 -0.06017999848078315
thorax -2.3464955867884525 1.0240545127793292 1.2090245877801147
lowerneck -9.365238439154531 -5.461615020200203 -6.326420136799674
upperneck 30.98895049893408 -8.574644958442441 5.892439082741885
head 11.594253391281656 -3.9077000520939293 1.9523251707125975
rclavicle -3.141055066736177E-15 1.7591421904250862E-15
rhumerus -8.440586377619073 2.3877634515178237 -79.56463677170183
rradius 50.31772067790631
rwrist -20.85712807751334
rhand -42.087871542929044 15.636427832270083
rfingers 7.125019999999948
rthumb -14.937068003482581 -13.767796435576505
lclavicle -6.898983572503672E-15 1.2091649576433203E-15
lhumerus -30.658752176971724 11.378251349155274 77.75249461895017
lradius 24.89607981534578
lwrist -4.65413099637735
lhand -23.966272923768514 22.05183598267468
lfingers 7.12501999999995
lthumb 2.5097521334913115 51.98624949107167
rfemur -1.1731773729106885 8.281911670088014 34.297444958029395
rtibia 28.02707714751191
rfoot -19.904466895131748 -9.20673773005391
rtoes 5.538621164196043
lfemur -28.18542580699079 3.5143154450384824 -13.106396175515004
ltibia 57.46885680855392
lfoot -5.21312967707409 -4.251483019212019
ltoes -7.5522454111320805
155
root 0 0 0 -3.0645829270287877 -3.7262648673213965 -0.39079116071894593
lowerback 8.324657358200843 1.4365736599782863 -0.39833724854722546
upperback -0.5700101175505136 1.8224603980554652 -0.9874415588605453
thorax -5.2880459714746 0.8811857228365891 -1.0030628175099674
lowerneck -11.300391695551903 -4.287860399286158 -5.624881621741027
upperneck 3.1737179849149575 -5.092651559331726 8.447879423841023
head 3.154223814391705 -2.339237302608458 3.4398239051543285
rclavicle -4.061002819860815E-15 7.70470762180446E-16
rhumerus 1.670695800172325 2.0037333110401647 -72.8731736853808
rradius 68.3538804688537
rwrist -16.89799822309979
rhand -41.10084131906541 13.264030895272631
rfingers 7.125019999999932
rthumb -13.925295802523353 -16.171368074767333
lclavicle -4.884434800376248E-15 7.361099765681506E-16
lhumerus -32.921447110789124 12.517406527275643 74.20353498767763
lradius 23.941008159390705
lwrist -5.907678541168168
lhand -24.96006442384029 22.02979582880521
lfingers 7.125019999999946
lthumb 1.5547406691248524 51.975443061380155
rfemur 3.138441887238748 8.11405094891662 34.95561927937636
rtibia 26.021522000158562
rfoot -21.378631944866232 -8.630210743580177
rtoes 5.749931978983655
lfemur -30.11513985726726 3.060559222312806 -12.088578126525478
ltibia 56.37660565097496
lfoot -5.494656561144964 -1.5742754148445055
ltoes -6.9156983996692105
156
root 0 0 0 -2.2994342001911785 -3.7449038191079835 0.39485120500969667
lowerback 7.5702045798175 1.5972768042775183 -2.28604239350941
upperback 1.548803748636612 1.9903939247384894 -0.17396324051638334
thorax -2.668514347997886 1.0342457694123321 0.9728630882686565
lowerneck -9.612954541659784 -5.358838245582119 -6.282020073248868
upperneck 28.28875252990029 -8.23495370626729 6.244843050465105
head 10.778082087328176 -3.752671302231943 2.1403993528505407
rclavicle -3.221874931498591E-15 1.841711046692824E-15
rhumerus -7.6202816293254045 2.7988635712548007 -78.86682600249294
rradius 52.70088200996776
rwrist -20.46300549460156
rhand -41.92524382205587 15.476225422466594
rfingers 7.125019999999947
rthumb -14.775372517790476 -13.939151376024789
lclavicle -6.856241574465421E-15 1.6006328974013295E-15
lhumerus -31.28858579043484 11.92502784621053 76.66647758096065
lradius 24.666339841173745
lwrist -4.973536603441425
lhand -24.445611869747115 21.91315963285067
lfingers 7.125019999999954
lthumb 2.0492992258844493 51.85437506529148
rfemur 1.58727878671016 8.338601520030574 34.70674997344572
rtibia 26.972400713854796
rfoot -20.913294057008343 -8.918607067776112
rtoes 4.863810236501884
lfemur -30.753436080876988 2.350863666776158 -12.742435881667896
ltibia 49.57495382315065
lfoot -5.5230835901294935 -3.087844555286038
ltoes -6.82627732396004
157
root 0 0 0 -2.1638282022168185 -3.7101634942705797 0.4708166263613321
lowerback 7.587497732204331 1.612821011317129 -2.4618739476335136
upperback 1.7981337840053397 2.0033009806525732 -0.10672525626514084
thorax -2.4221013350533966 1.0492813003332766 1.1465474956178836
lowerneck -9.370764704165975 -5.495536986925461 -6.422251946349832
upperneck 30.11863503108094 -8.543197492614969 6.194216397104945
head 11.337152191301554 -3.8957795102743544 2.083899680307991
rclavicle -2.8576785813595085E-15 1.8847251651285207E-15
rhumerus -8.988932778574412 3.343132125820075 -79.57228826137325
rradius 51.63388139824094
rwrist -21.01025295851891
rhand -41.97233075855608 15.434559697214413
rfingers 7.12501999999995
rthumb -14.828712993910464 -13.982747279896953
lclavicle -6.611714906565078E-15 1.5964299674347478E-15
lhumerus -31.30778929607972 12.031282158216904 76.59618656743612
lradius 24.67563381969578
lwrist -4.961754472723551
lhand -24.54892741935845 21.861699000051246
lfingers 7.125019999999955
lthumb 1.9497688028192108 51.803068575680825
rfemur 2.678804329140657 8.406094863767105 34.75969304948856
rtibia 26.448881899174978
rfoot -21.218691313900813 -9.052542800919198
rtoes 4.33928316380897
lfemur -32.128824002558545 1.749539288485904 -12.702607030914766
ltibia 44.59714560858285
lfoot -5.782589879782291 -2.679734754585935
ltoes -6.097992731046878
